<svg width="192" height="141" viewBox="0 0 192 141" fill="none" xmlns="http://www.w3.org/2000/svg">
<g clip-path="url(#clip0_1_17)">
<path fill-rule="evenodd" clip-rule="evenodd" d="M50.8421 138.291C80.0217 125.361 114.126 123.536 146.276 135.877C146.588 135.997 146.898 136.118 147.208 136.239L192.005 19.54C191.694 19.4193 191.383 19.2993 191.072 19.1798C126.697 -5.53159 58.4042 -1.84337 8.43419e-07 24.0978L50.8421 138.291Z" fill="url(#paint0_linear_1_17)"/>
<path d="M50.8421 138.291L49.9286 138.698L50.3346 139.61L51.2472 139.205L50.8421 138.291ZM146.276 135.877L145.918 136.811L145.918 136.811L146.276 135.877ZM147.208 136.239L146.843 137.17L147.781 137.539L148.142 136.598L147.208 136.239ZM192.005 19.54L192.939 19.8983L193.296 18.9684L192.367 18.6078L192.005 19.54ZM191.072 19.1798L191.43 18.2462L191.43 18.2462L191.072 19.1798ZM8.43419e-07 24.0978L-0.405925 23.1839L-1.32064 23.5902L-0.913545 24.5045L8.43419e-07 24.0978ZM51.2472 139.205C80.1948 126.379 114.025 124.568 145.918 136.811L146.634 134.944C114.227 122.504 79.8486 124.344 50.437 137.377L51.2472 139.205ZM145.918 136.811C146.227 136.93 146.535 137.049 146.843 137.17L147.574 135.309C147.262 135.186 146.948 135.064 146.634 134.944L145.918 136.811ZM148.142 136.598L192.939 19.8983L191.071 19.1816L146.275 135.881L148.142 136.598ZM192.367 18.6078C192.055 18.4867 191.743 18.3662 191.43 18.2462L190.714 20.1133C191.024 20.2324 191.334 20.352 191.643 20.4721L192.367 18.6078ZM191.43 18.2462C126.798 -6.56392 58.2305 -2.86041 -0.405925 23.1839L0.405926 25.0117C58.5779 -0.826319 126.596 -4.49927 190.714 20.1133L191.43 18.2462ZM-0.913545 24.5045L49.9286 138.698L51.7557 137.884L0.913546 23.691L-0.913545 24.5045Z" fill="black" fill-opacity="0.5"/>
</g>
<defs>
<linearGradient id="paint0_linear_1_17" x1="82" y1="-78" x2="81" y2="275" gradientUnits="userSpaceOnUse">
<stop offset="0.209526" stop-color="#D9D9D9"/>
<stop offset="0.705256" stop-color="#F5F5F5"/>
<stop offset="1" stop-color="#D9D9D9" stop-opacity="0"/>
</linearGradient>
<clipPath id="clip0_1_17">
<rect width="192" height="141" fill="white"/>
</clipPath>
</defs>
</svg>
