<svg width="192" height="140" viewBox="0 0 192 140" fill="none" xmlns="http://www.w3.org/2000/svg">
<g clip-path="url(#clip0_1914_252)">
<g clip-path="url(#clip1_1914_252)">
<mask id="mask0_1914_252" style="mask-type:luminance" maskUnits="userSpaceOnUse" x="0" y="-1" width="194" height="141">
<path d="M194 -1H0V140H194V-1Z" fill="white"/>
</mask>
<g mask="url(#mask0_1914_252)">
<path fill-rule="evenodd" clip-rule="evenodd" d="M49.7574 136.904C78.3832 124.608 111.545 123.52 142.493 136.553C142.793 136.68 143.092 136.807 143.39 136.935L189.491 21.2327C189.192 21.1053 188.892 20.9786 188.593 20.8525C126.624 -5.24388 60.2188 -3.0323 2.92176 21.6404L49.7574 136.904Z" fill="#343434"/>
<path d="M49.8372 136.958L48.9414 137.346L49.3165 138.266L50.2114 137.88L49.8372 136.958ZM143.47 136.877L143.096 137.801L143.999 138.189L144.369 137.255L143.47 136.877ZM189.433 21.1201L190.332 21.4975L190.698 20.5751L189.804 20.1955L189.433 21.1201ZM2.86397 21.7505L2.48898 20.8285L1.59206 21.216L1.96818 22.1384L2.86397 21.7505ZM50.2114 137.88C78.5949 125.649 111.488 124.53 142.205 137.423L142.939 135.571C111.728 122.471 78.3015 123.607 49.463 136.036L50.2114 137.88ZM142.205 137.423C142.502 137.548 142.799 137.673 143.096 137.801L143.845 135.955C143.544 135.826 143.242 135.697 142.939 135.571L142.205 137.423ZM144.369 137.255L190.332 21.4975L188.533 20.7427L142.571 136.5L144.369 137.255ZM189.804 20.1955C189.503 20.0681 189.203 19.9412 188.901 19.8149L188.167 21.6669C188.465 21.7923 188.764 21.9182 189.061 22.0446L189.804 20.1955ZM188.901 19.8149C126.654 -6.31147 59.9842 -4.01096 2.48898 20.8285L3.23896 22.6725C60.2788 -1.97022 126.414 -4.2514 188.167 21.6669L188.901 19.8149ZM1.96818 22.1384L48.9414 137.346L50.733 136.57L3.75975 21.3624L1.96818 22.1384Z" fill="black"/>
</g>
</g>
</g>
<defs>
<clipPath id="clip0_1914_252">
<rect width="192" height="140" fill="white"/>
</clipPath>
<clipPath id="clip1_1914_252">
<rect width="192" height="141" fill="white" transform="translate(0 -1)"/>
</clipPath>
</defs>
</svg>
